<svg xmlns="http://www.w3.org/2000/svg" width="256" height="256" viewBox="0 0 256 256"><path d="M58.8 167.1a31.9 31.9 0 0 0-7.7.9c0 .3.2.6.8 1a12.3 12.3 0 0 0 2 1l2.6 1 2.8.9 2.5.6 1.4.2h2.2l2.5-.4a13.4 13.4 0 0 0 2.4-.9A5 5 0 0 0 72 170a30.3 30.3 0 0 0-6.4-2.2 30.8 30.8 0 0 0-6.8-.7z"/><path d="M128.2 0A127.9 127.9 0 1 0 256 127.8 127.9 127.9 0 0 0 128.2 0zm83.3 70.5v.3a8.2 8.2 0 0 1-.1 1.4l-.3 2.2-.3 2.1c-.2.6-.2 1.1-.3 1.3l-.9 1.8-.6 2-.6 2.1a15.4 15.4 0 0 1-.8 1.9c-.5 1.1-1.1 2.1-1.6 3.1a14.3 14.3 0 0 0-1.6 3l-20.1 27.9a3.9 3.9 0 0 0-.2.6l-.3.2-.3.3-.4.5-1.7 2.3-2.1 2.9-2.2 3.3-2 3.2-1.4 3a8.6 8.6 0 0 0-.5 2.4c0 .3-.2.5-.2.7s.2.4.2.7c-.2 0-.3.2-.3.4s.1.4.3.4v10.2a1.9 1.9 0 0 1-.3 1l-.3 1.2a6.7 6.7 0 0 0-.6 1.2 3.4 3.4 0 0 0-.5 1.1v1.7c0 .1.1.2 0 .4s-.2.5-.4.8l-.7.8c-.2.3-.6.4-.6.5v.4s.7.2.8.4.9.3.9.4v2.8a22.5 22.5 0 0 1-.6 3.6c-.2 1.2-.6 2.3-.8 3.5s-.5 2.4-.6 3.5a22 22 0 0 0-.4 3.6q0 3.2.3 6.3a42.3 42.3 0 0 0 1.1 6.2 31.4 31.4 0 0 0 2.2 5.8 21.1 21.1 0 0 0 3.4 5.2 4.8 4.8 0 0 1-1.3.9 8.5 8.5 0 0 1-1.7.6l-1.7.5h-1.9l-1.1-.3-1.2-.2-.9-.2-.8-.2-.7-.3a1.8 1.8 0 0 1-.7-.5 2.4 2.4 0 0 1-.3-.7 27.7 27.7 0 0 0 .1-4.1 29.7 29.7 0 0 0-.3-4.2c-.1-1.5-.3-2.9-.5-4.3s-.4-2.8-.5-4.1a6.4 6.4 0 0 1-.2-.7 1.6 1.6 0 0 0-.3-.6c.1-1.1.1-2.3.2-3.6a28.2 28.2 0 0 0-.2-4.1 25.7 25.7 0 0 0-.6-4 9.4 9.4 0 0 0-1.4-3.4 3 3 0 0 0-1.4 1.8 17.3 17.3 0 0 0-.8 2.7 25 25 0 0 1-.5 2.9c-.2 1-.9 1.8-.9 2.4v7.6c0 2.8-.2 5.6-.1 8.3a79.1 79.1 0 0 0 .6 8.3l.4.3.8.6a2.7 2.7 0 0 1 .8.7c.2.2.4.4.4.6s-.3.5-.9.8l-1.8.9a9 9 0 0 1-2.1.8l-1.2.5h-.2l-4.8-2.7a.3.3 0 0 1-.2-.4v-.6c0-1.1-.1-2.2 0-3.1a28.1 28.1 0 0 0 .1-3 23.4 23.4 0 0 0-.3-3.8l-.6-3.7-.6-3.8c-.1-1.3-.2-2.6-.2-3.9s0-2.4.1-3.4l.3-2.8.6-2.8c.2-1 .4-2 .6-3.2a.8.8 0 0 0 0-.7 2.3 2.3 0 0 1-.1-.7 5.8 5.8 0 0 0-1.9.2l-1.9.5-1.9.6-1.9.5-1.4.2-1.1.2-1-.2h-2.9a46.4 46.4 0 0 1-5.3-.1h-7.7a4.3 4.3 0 0 0-2.4.8 46.9 46.9 0 0 1 0 5.3c0 1.7-.1 3.4-.1 5.1l-.3 5.1c0 1.7-.1 3.5-.1 5.2v1a8.5 8.5 0 0 0 0 1.6v2.6c0 .5.6 1.1 1.1 1.6l1.4 1.8a6.6 6.6 0 0 1 1.2 1.7 3.1 3.1 0 0 1 .5 1.8v.4a9.4 9.4 0 0 1-4.1.4c.1.5 0 .7-.2.8h-2.7l-2.3-.2a5.1 5.1 0 0 1-1.8-.9 1.9 1.9 0 0 1-.8-1.8 5.3 5.3 0 0 1 .1-1.3l.3-1.3a7.4 7.4 0 0 0 .4-1.4 6.1 6.1 0 0 0 .1-1.4 23.4 23.4 0 0 0-.3-3.8c-.2-1.2-.4-2.4-.7-3.6s-.5-2.7-.8-3.9a29.6 29.6 0 0 1-.7-4h-.4c-.2 0-.4.8-.5 1s-.3.5-.4.7l-.4.5-1.5 2.3a18.2 18.2 0 0 0-1.5 2.3 17.5 17.5 0 0 0-1.1 2.4 8.4 8.4 0 0 0-.4 2.7 4.1 4.1 0 0 0 .3 1.6l.8 1.6.7 1.1a1.5 1.5 0 0 1 .3.6.8.8 0 0 1-.4.7l-1 .5-1.3.3h-2.7l-1.7-.2a2 2 0 0 1-1.1-.3 2.2 2.2 0 0 1-.7-.9 10.3 10.3 0 0 1-.5-1.6 10.9 10.9 0 0 1-.5-1.7 4.5 4.5 0 0 1-.3-1.6 2.8 2.8 0 0 1 .4-1.5l.9-1.6L97 189a5.5 5.5 0 0 0 .8-1.5c.9-1.9 1.7-3.9 2.5-5.9s1.6-4 2.5-5.9l.4-.8.6-.7a2 2 0 0 0 .4-.8 1.9 1.9 0 0 0 .2-.8q0-.6-.3-.6h-1.3l-9.1 2.4c-.2.3-.7.4-1.3.6l-1.8.4-1.6.6a1.4 1.4 0 0 0-.7 1.1 1.2 1.2 0 0 0 .3.9 2.3 2.3 0 0 0 .7.7l.8.5.7.6-.4.5-1.2-.9-1.5-.8-1.5-.6-1.5-.3a13.1 13.1 0 0 0-3.8.6l-4 1.1-4.1 1.1a15.2 15.2 0 0 1-4.2.6 31.2 31.2 0 0 1-3.5-.4l-4.9-1.2c-1.8-.5-3.6-1-5.5-1.7a46.7 46.7 0 0 1-5-2.3 13.6 13.6 0 0 1-3.7-2.7 4.1 4.1 0 0 1-1.5-3 4.5 4.5 0 0 1 1.2-3.3 6.1 6.1 0 0 1 2.7-1.6c1.1-.4 2.3-.1 3.5-.2s2.4.4 3.4.4h4c.2 0 .6-.4 1.3-.3a19.5 19.5 0 0 1 2.3.2l2.6.3 2 .3a5.9 5.9 0 0 1 1.9.5l1.8.8 1.9.8a6.4 6.4 0 0 0 2 .3 8.8 8.8 0 0 0 4-1 25.7 25.7 0 0 0 4.1-2.6l4-3.1 3.2-2.8 1.9-1.2 1.9-1.1a10.9 10.9 0 0 0 1.7-1.3 6.1 6.1 0 0 0 1.5-1.7 33.5 33.5 0 0 0 2.7-4.5 20.7 20.7 0 0 1 2.7-4.5l1.3-1.3 1.5-1 1.7-.9 1.6-.9a30.7 30.7 0 0 0 3.6-2.7l3.5-2.9 3.4-3c1.1-1 2.2-2 3.4-2.9a20.8 20.8 0 0 1 3.8-2.2l4-1.9 2.5-1.3 2.5-1.3 2.6-1.1a10.7 10.7 0 0 1 2.7-.8l22.5-3.3a9.5 9.5 0 0 0 3.5-1.1 17.9 17.9 0 0 0 3.4-2.2 42 42 0 0 0 3.2-2.9l2.9-3.3 2.7-3.2 2.3-2.8 7.8-9.1.3-.2.6-.6.5-.5q.2-.3.3-.3l2-3.3h.3l.3-.3.4-.2.2-.2.5-.4c.2-.2.3-.3.3-.4l1.3-1.7a24.3 24.3 0 0 1 1.4-2l1.3-2a9.5 9.5 0 0 0 .9-1.7 8.8 8.8 0 0 0 .9-2l.7-2.2c.2-.7.5-1.4.8-2.2s1-1.5 1-2.2v-6.2a5.3 5.3 0 0 0-1.1-3.1 11.5 11.5 0 0 0-2.7-2.7 17.4 17.4 0 0 0-3.3-1.8 10.9 10.9 0 0 0-3.3-.7 27.9 27.9 0 0 0-5.8.7 12.4 12.4 0 0 0-5.2 2.7 9.2 9.2 0 0 0-1.4 1.4c-.5.6-1.1 1.2-1.6 1.9l-1.8 2-1.8 1.9-1.9 1.3a4.1 4.1 0 0 1-1.8.5 1.6 1.6 0 0 1-1.1-.5 1.4 1.4 0 0 1-.6-1.1v-.5l.2-.4c0-.3.1-.5.1-.8s.1-.5.2-.8V63a3.9 3.9 0 0 0-.2-1.6l-.6-1.4-.6-1.2a2.8 2.8 0 0 1-.3-1.3c.4 0 .7 0 .9-.2a1.6 1.6 0 0 0 .4-.7l.5-.7a1 1 0 0 1 .8-.6h2.8a1.3 1.3 0 0 0 1-.3 2.3 2.3 0 0 1 .7-.7h.4a.5.5 0 0 1 .2.4l.2.4c.1-.2.2-.3.4-.3l.7-.4 1.1-.7 1.3-.8 1.4-.8 1.1-.6.6-.4a13.5 13.5 0 0 1 2.1-1.3l1.8-.6a5.8 5.8 0 0 1 1.9-.2h6.5a3.3 3.3 0 0 0 1.5.5l1.5.4 1.6.3 1.5.5a14.7 14.7 0 0 1 4.6 3 18 18 0 0 1 3.2 4.2A21.8 21.8 0 0 1 211 63a20.1 20.1 0 0 1 .5 5.5v2.3z"/></svg>