<svg xmlns="http://www.w3.org/2000/svg"><symbol id="brachiosaurus" viewBox="0 0 256 256"><path d="M58.8 167.1a31.9 31.9 0 0 0-7.7.9c0 .3.2.6.8 1a12.3 12.3 0 0 0 2 1l2.6 1 2.8.9 2.5.6 1.4.2h2.2l2.5-.4a13.4 13.4 0 0 0 2.4-.9A5 5 0 0 0 72 170a30.3 30.3 0 0 0-6.4-2.2 30.8 30.8 0 0 0-6.8-.7z"/><path d="M128.2 0A127.9 127.9 0 1 0 256 127.8 127.9 127.9 0 0 0 128.2 0zm83.3 70.5v.3a8.2 8.2 0 0 1-.1 1.4l-.3 2.2-.3 2.1c-.2.6-.2 1.1-.3 1.3l-.9 1.8-.6 2-.6 2.1a15.4 15.4 0 0 1-.8 1.9c-.5 1.1-1.1 2.1-1.6 3.1a14.3 14.3 0 0 0-1.6 3l-20.1 27.9a3.9 3.9 0 0 0-.2.6l-.3.2-.3.3-.4.5-1.7 2.3-2.1 2.9-2.2 3.3-2 3.2-1.4 3a8.6 8.6 0 0 0-.5 2.4c0 .3-.2.5-.2.7s.2.4.2.7c-.2 0-.3.2-.3.4s.1.4.3.4v10.2a1.9 1.9 0 0 1-.3 1l-.3 1.2a6.7 6.7 0 0 0-.6 1.2 3.4 3.4 0 0 0-.5 1.1v1.7c0 .1.1.2 0 .4s-.2.5-.4.8l-.7.8c-.2.3-.6.4-.6.5v.4s.7.2.8.4.9.3.9.4v2.8a22.5 22.5 0 0 1-.6 3.6c-.2 1.2-.6 2.3-.8 3.5s-.5 2.4-.6 3.5a22 22 0 0 0-.4 3.6q0 3.2.3 6.3a42.3 42.3 0 0 0 1.1 6.2 31.4 31.4 0 0 0 2.2 5.8 21.1 21.1 0 0 0 3.4 5.2 4.8 4.8 0 0 1-1.3.9 8.5 8.5 0 0 1-1.7.6l-1.7.5h-1.9l-1.1-.3-1.2-.2-.9-.2-.8-.2-.7-.3a1.8 1.8 0 0 1-.7-.5 2.4 2.4 0 0 1-.3-.7 27.7 27.7 0 0 0 .1-4.1 29.7 29.7 0 0 0-.3-4.2c-.1-1.5-.3-2.9-.5-4.3s-.4-2.8-.5-4.1a6.4 6.4 0 0 1-.2-.7 1.6 1.6 0 0 0-.3-.6c.1-1.1.1-2.3.2-3.6a28.2 28.2 0 0 0-.2-4.1 25.7 25.7 0 0 0-.6-4 9.4 9.4 0 0 0-1.4-3.4 3 3 0 0 0-1.4 1.8 17.3 17.3 0 0 0-.8 2.7 25 25 0 0 1-.5 2.9c-.2 1-.9 1.8-.9 2.4v7.6c0 2.8-.2 5.6-.1 8.3a79.1 79.1 0 0 0 .6 8.3l.4.3.8.6a2.7 2.7 0 0 1 .8.7c.2.2.4.4.4.6s-.3.5-.9.8l-1.8.9a9 9 0 0 1-2.1.8l-1.2.5h-.2l-4.8-2.7a.3.3 0 0 1-.2-.4v-.6c0-1.1-.1-2.2 0-3.1a28.1 28.1 0 0 0 .1-3 23.4 23.4 0 0 0-.3-3.8l-.6-3.7-.6-3.8c-.1-1.3-.2-2.6-.2-3.9s0-2.4.1-3.4l.3-2.8.6-2.8c.2-1 .4-2 .6-3.2a.8.8 0 0 0 0-.7 2.3 2.3 0 0 1-.1-.7 5.8 5.8 0 0 0-1.9.2l-1.9.5-1.9.6-1.9.5-1.4.2-1.1.2-1-.2h-2.9a46.4 46.4 0 0 1-5.3-.1h-7.7a4.3 4.3 0 0 0-2.4.8 46.9 46.9 0 0 1 0 5.3c0 1.7-.1 3.4-.1 5.1l-.3 5.1c0 1.7-.1 3.5-.1 5.2v1a8.5 8.5 0 0 0 0 1.6v2.6c0 .5.6 1.1 1.1 1.6l1.4 1.8a6.6 6.6 0 0 1 1.2 1.7 3.1 3.1 0 0 1 .5 1.8v.4a9.4 9.4 0 0 1-4.1.4c.1.5 0 .7-.2.8h-2.7l-2.3-.2a5.1 5.1 0 0 1-1.8-.9 1.9 1.9 0 0 1-.8-1.8 5.3 5.3 0 0 1 .1-1.3l.3-1.3a7.4 7.4 0 0 0 .4-1.4 6.1 6.1 0 0 0 .1-1.4 23.4 23.4 0 0 0-.3-3.8c-.2-1.2-.4-2.4-.7-3.6s-.5-2.7-.8-3.9a29.6 29.6 0 0 1-.7-4h-.4c-.2 0-.4.8-.5 1s-.3.5-.4.7l-.4.5-1.5 2.3a18.2 18.2 0 0 0-1.5 2.3 17.5 17.5 0 0 0-1.1 2.4 8.4 8.4 0 0 0-.4 2.7 4.1 4.1 0 0 0 .3 1.6l.8 1.6.7 1.1a1.5 1.5 0 0 1 .3.6.8.8 0 0 1-.4.7l-1 .5-1.3.3h-2.7l-1.7-.2a2 2 0 0 1-1.1-.3 2.2 2.2 0 0 1-.7-.9 10.3 10.3 0 0 1-.5-1.6 10.9 10.9 0 0 1-.5-1.7 4.5 4.5 0 0 1-.3-1.6 2.8 2.8 0 0 1 .4-1.5l.9-1.6L97 189a5.5 5.5 0 0 0 .8-1.5c.9-1.9 1.7-3.9 2.5-5.9s1.6-4 2.5-5.9l.4-.8.6-.7a2 2 0 0 0 .4-.8 1.9 1.9 0 0 0 .2-.8q0-.6-.3-.6h-1.3l-9.1 2.4c-.2.3-.7.4-1.3.6l-1.8.4-1.6.6a1.4 1.4 0 0 0-.7 1.1 1.2 1.2 0 0 0 .3.9 2.3 2.3 0 0 0 .7.7l.8.5.7.6-.4.5-1.2-.9-1.5-.8-1.5-.6-1.5-.3a13.1 13.1 0 0 0-3.8.6l-4 1.1-4.1 1.1a15.2 15.2 0 0 1-4.2.6 31.2 31.2 0 0 1-3.5-.4l-4.9-1.2c-1.8-.5-3.6-1-5.5-1.7a46.7 46.7 0 0 1-5-2.3 13.6 13.6 0 0 1-3.7-2.7 4.1 4.1 0 0 1-1.5-3 4.5 4.5 0 0 1 1.2-3.3 6.1 6.1 0 0 1 2.7-1.6c1.1-.4 2.3-.1 3.5-.2s2.4.4 3.4.4h4c.2 0 .6-.4 1.3-.3a19.5 19.5 0 0 1 2.3.2l2.6.3 2 .3a5.9 5.9 0 0 1 1.9.5l1.8.8 1.9.8a6.4 6.4 0 0 0 2 .3 8.8 8.8 0 0 0 4-1 25.7 25.7 0 0 0 4.1-2.6l4-3.1 3.2-2.8 1.9-1.2 1.9-1.1a10.9 10.9 0 0 0 1.7-1.3 6.1 6.1 0 0 0 1.5-1.7 33.5 33.5 0 0 0 2.7-4.5 20.7 20.7 0 0 1 2.7-4.5l1.3-1.3 1.5-1 1.7-.9 1.6-.9a30.7 30.7 0 0 0 3.6-2.7l3.5-2.9 3.4-3c1.1-1 2.2-2 3.4-2.9a20.8 20.8 0 0 1 3.8-2.2l4-1.9 2.5-1.3 2.5-1.3 2.6-1.1a10.7 10.7 0 0 1 2.7-.8l22.5-3.3a9.5 9.5 0 0 0 3.5-1.1 17.9 17.9 0 0 0 3.4-2.2 42 42 0 0 0 3.2-2.9l2.9-3.3 2.7-3.2 2.3-2.8 7.8-9.1.3-.2.6-.6.5-.5q.2-.3.3-.3l2-3.3h.3l.3-.3.4-.2.2-.2.5-.4c.2-.2.3-.3.3-.4l1.3-1.7a24.3 24.3 0 0 1 1.4-2l1.3-2a9.5 9.5 0 0 0 .9-1.7 8.8 8.8 0 0 0 .9-2l.7-2.2c.2-.7.5-1.4.8-2.2s1-1.5 1-2.2v-6.2a5.3 5.3 0 0 0-1.1-3.1 11.5 11.5 0 0 0-2.7-2.7 17.4 17.4 0 0 0-3.3-1.8 10.9 10.9 0 0 0-3.3-.7 27.9 27.9 0 0 0-5.8.7 12.4 12.4 0 0 0-5.2 2.7 9.2 9.2 0 0 0-1.4 1.4c-.5.6-1.1 1.2-1.6 1.9l-1.8 2-1.8 1.9-1.9 1.3a4.1 4.1 0 0 1-1.8.5 1.6 1.6 0 0 1-1.1-.5 1.4 1.4 0 0 1-.6-1.1v-.5l.2-.4c0-.3.1-.5.1-.8s.1-.5.2-.8V63a3.9 3.9 0 0 0-.2-1.6l-.6-1.4-.6-1.2a2.8 2.8 0 0 1-.3-1.3c.4 0 .7 0 .9-.2a1.6 1.6 0 0 0 .4-.7l.5-.7a1 1 0 0 1 .8-.6h2.8a1.3 1.3 0 0 0 1-.3 2.3 2.3 0 0 1 .7-.7h.4a.5.5 0 0 1 .2.4l.2.4c.1-.2.2-.3.4-.3l.7-.4 1.1-.7 1.3-.8 1.4-.8 1.1-.6.6-.4a13.5 13.5 0 0 1 2.1-1.3l1.8-.6a5.8 5.8 0 0 1 1.9-.2h6.5a3.3 3.3 0 0 0 1.5.5l1.5.4 1.6.3 1.5.5a14.7 14.7 0 0 1 4.6 3 18 18 0 0 1 3.2 4.2A21.8 21.8 0 0 1 211 63a20.1 20.1 0 0 1 .5 5.5v2.3z"/></symbol><symbol id="velociraptor" viewBox="0 0 256 256"><path d="M128 .5C57.3.5 0 57.6 0 128s57.3 127.5 128 127.5S256 198.4 256 128 198.7.5 128 .5zm110.7 116.3h-7.4c-3.1 0-6.2-.2-9.2-.4l-9.2-1-9.1-1c-3.1-.3-6.2-.4-9.3-.4a130 130 0 0 0-16.4 1 65.7 65.7 0 0 0-15.9 3.7l-30.8 11a2.7 2.7 0 0 0-1.2 1.6 17.3 17.3 0 0 0-.8 2.7l-.6 2.9a9.8 9.8 0 0 1-.6 2 3.2 3.2 0 0 0 1.3 1.3l2.5 1.1 2.9 1.2a15.1 15.1 0 0 1 2.8 1.5 9.5 9.5 0 0 1 2.1 1.9 4.1 4.1 0 0 1 .8 2.4 1.7 1.7 0 0 1-.5 1.2 3.8 3.8 0 0 1-1.2.9l-1.6.7-1.6.8a6.9 6.9 0 0 0-1.3 1.1 2.4 2.4 0 0 0-.4 1.5 3.3 3.3 0 0 0 .8 2.5 6 6 0 0 0 1.9 1.6l2.4 1.4a6.8 6.8 0 0 1 2.1 1.7 13.6 13.6 0 0 1 2.1 3.4 33 33 0 0 1 1.3 3.7 26.6 26.6 0 0 1 .7 3.9c.2 1.3.1 2.6.3 4l1.3 1.3v7.2h1.9l1 .3.6.2v.8a3.8 3.8 0 0 1-.1 1 5.3 5.3 0 0 1-.3 1.2 2.6 2.6 0 0 1-.7 1 .8.8 0 0 1-.8.3h-5.3c-.2 0-.5-.5-1-.8l-1.5-.9-1.5-.8c-.6-.3-.9-.8-1.2-.8h-6.2a4.4 4.4 0 0 1 2.3-4.6l2.1-.6 2.2-.4a3.8 3.8 0 0 0 1.6-.6 1.4 1.4 0 0 0 .7-1.3.8.8 0 0 0-.1-.4v-.3l-.8-1.7-1.3-2.5c-.5-.8-1-1.7-1.6-2.5a9.5 9.5 0 0 0-1.5-1.8l-1.3-.8-1.9-.9-1.8-1.1a1.9 1.9 0 0 1-.9-1.1 16.3 16.3 0 0 1-1-2.9 17.3 17.3 0 0 0-1.1-3.2 6.9 6.9 0 0 0-1.7-2.6 4 4 0 0 0-2.9-1.1 25.5 25.5 0 0 0-6.1.8 23.5 23.5 0 0 0-5.7 2.3 25.2 25.2 0 0 0-5.1 3.4 24.4 24.4 0 0 0-3.9 4.6l-.4.2h-.1l-.2-.2-.2-.3c0-.2-.1-.4-.1-.6a6.4 6.4 0 0 0-.2-.7v-.3h-.3a1.6 1.6 0 0 0-1.1.5l-.9 1.2-.8 1.3a3 3 0 0 1-.9 1 4.6 4.6 0 0 1-.6-1.6 8.6 8.6 0 0 1-.1-1.7 9.2 9.2 0 0 1 .4-2.9l.9-2.8a11.4 11.4 0 0 0 .9-2.6 14.1 14.1 0 0 0 .4-2.7h-5c0-1.7.2-1.8.7-2.4a6.1 6.1 0 0 1 1.6-1.6l2.1-.9 2.2-.3a15.1 15.1 0 0 1 3 .2l3 .5 2.9.4a13.7 13.7 0 0 0 2.9.2h2.3a2.4 2.4 0 0 0-1.7-1.4l-2.5-.5-2.7-.2c-.9 0-1.6.2-2.2-.2l-4-2.1h-.2a17.4 17.4 0 0 0-3.2-.1 11.3 11.3 0 0 1-3.2.2 7.3 7.3 0 0 1-3-.7l-2.7-1.4-2.6-1.4a6.6 6.6 0 0 0-2.9-.6v6.1l1.6-.2 1-.3.9-.5.9-.7h.6v2.7l2-.7c0 .1.2.3.2.5s.2.4.2.5a5.6 5.6 0 0 1-1.4 3.9 19 19 0 0 1-3.3 2.9 26.4 26.4 0 0 0-4.6-1.3l-4.8-.6v-7.9l-1.8.6-2 1a10.5 10.5 0 0 0-1.9 1.2c-.5.4-1 .8-1 1.2v6.9a9.6 9.6 0 0 0 3-.3l1.9-.6 1.2-.6a2.4 2.4 0 0 1 1.2-.3h.4l.3.7c.1.4.3.8.4 1.3a6.5 6.5 0 0 1 .4 1.3 5.1 5.1 0 0 1 .2.9 4.3 4.3 0 0 1-.4 1.9 5.4 5.4 0 0 1-1.1 1.8 5 5 0 0 1-1.5 1.4 3.4 3.4 0 0 1-1.9.5h-1l-3-.5a22 22 0 0 1-3.7-.7 14.2 14.2 0 0 1-3.3-1.2 2.6 2.6 0 0 1-1.4-2.1V150c0-.2.4-.4.9-.9l1.9-1.6 2.4-2.2 2.4-2.5a21.1 21.1 0 0 0 1.8-2.7 5.1 5.1 0 0 0 .7-2.6 3.7 3.7 0 0 0-1.2-2.7 12.1 12.1 0 0 0-2.8-2.1l-3.3-1.4-2.5-.9-1.3-9.1-.6-2.7a11.8 11.8 0 0 0-1.2-2.8 5.8 5.8 0 0 0-1.7-2.1 4.4 4.4 0 0 0-2.7-.9 10.7 10.7 0 0 0-3.7.5 13 13 0 0 0-3.2 1.5l-1.7 1-2.5 1.5-3 1.7c-1 .7-2 1.2-3 1.8a29.4 29.4 0 0 0-2.6 1.7c-.7.4-1.3 1.1-1.6 1.1h-1l-1.8-.3-2.1-.3a4.1 4.1 0 0 1-1.3-.8c-.5-.3-.4-.8-.4-1.4v-1.9c0-.6-.2-.9.1-.9h1.5v-.4c.1-.3.1-.6.2-.9s.1-.5.2-.8v-.5a1.5 1.5 0 0 0-.8-.8l-.9-.5a2.3 2.3 0 0 1-.7-.7 2.3 2.3 0 0 1-.3-1.3 2.6 2.6 0 0 1 .3-1.1 4.5 4.5 0 0 1 .6-1.2c.3-.4.3-.7.7-.9l.8-.3v.8a3.5 3.5 0 0 0 .6 1.4 1.1 1.1 0 0 0 1.2.8 2.1 2.1 0 0 0 1.1-.5 4.8 4.8 0 0 0 .9-1.1 12.2 12.2 0 0 0 .7-1.7c.1-.4.2.3.2-1.4H20.8l-.8-.4a10.5 10.5 0 0 1-1.1-.7 3.6 3.6 0 0 1-.9-.8 1.3 1.3 0 0 1-.4-1 4 4 0 0 1 1.1-3.2 6.8 6.8 0 0 1 2.6-1.8 11.9 11.9 0 0 1 3.2-1l2.9-.9 2.2-.9 3.4-1.6a25.3 25.3 0 0 0 3.3-1.6 11 11 0 0 1 2.2-1h13.7a7.1 7.1 0 0 1 3.9 1 12.6 12.6 0 0 1 3.2 2.5 20.4 20.4 0 0 1 2.5 3.3l2.3 3.3a20.2 20.2 0 0 0 2.3 2.6 4.2 4.2 0 0 0 2.5 1c.4 0 .7-.1.8-.4s.4-.4.9-.4a4 4 0 0 1 1.5.3l1.5.7 1.5.7a4.5 4.5 0 0 0 1.6.3 29.5 29.5 0 0 0 4.2-.2l4.1-.4 4.1-.5 4.2-.2a57.4 57.4 0 0 1 7.3.4 33.1 33.1 0 0 1 7.3 1.6c1.7.5 3.3 1.2 5.1 1.9l5.1 2.2a47.2 47.2 0 0 0 5.3 1.8 20 20 0 0 0 5.4.7h2.6l13-2.7c4.3-.9 8.6-1.7 12.9-2.3s8.7-1.2 13-1.6 8.8-.6 13.2-.6h3.4l5.5.2a33.5 33.5 0 0 1 5.1.9l36.7 7.3h11.7c-.8 0-1.8 1-3.1 1.3a14 14 0 0 1-4.1.1z"/></symbol><symbol id="micropachycephalosaurus" viewBox="0 0 256 256"><path d="M132.1 151.3c-.3 0-.5.2-.5.6-.4 0-.5.2-.5.5s.1.6.5.6.4-.2.4-.6h.1a.5.5 0 0 0 .5-.5c0-.4-.2-.6-.5-.6zm1.4-.8a3 3 0 0 0-.8.8h.3l1.1-.3a2 2 0 0 0 .8-.8h-.3zm3.1-2.6c-.3 0-.4.2-.4.6h-.1c-.3 0-.5.1-.5.5h-.1c-.3 0-.5.2-.5.6s.2.6.5.6.5-.2.5-.6h.1c.3 0 .4-.2.4-.6h.1c.4 0 .5-.2.5-.5s-.1-.6-.5-.6zM160 142l-1.3 1.4a1.7 1.7 0 0 0 .8 1 2.2 2.2 0 0 0 1.2.2 1.9 1.9 0 0 0 1.4-.5 4.3 4.3 0 0 0 1.1-1.2 6.9 6.9 0 0 0 .7-1.5c.2-.5.4-1.2.5-1.2H161c-.2 0-.5 1.1-1 1.8z"/><path d="M127.5 0a128 128 0 1 0 128 128 128 128 0 0 0-128-128zm96 75.9a4.2 4.2 0 0 1-1.6.4h-3.7l-5.3 1.2a20.4 20.4 0 0 0-3.6 1.6 10.9 10.9 0 0 0-2.5 2.2 12.6 12.6 0 0 0-1.8 3 40.4 40.4 0 0 0-1.5 3.9c-.5 1.5-1.1 3.2-1.7 5.1l-1.2 3.7-1.2 3.2-1.5 3.1a26.8 26.8 0 0 1-1.8 3.3 29 29 0 0 1-2.7 4.1l-2.9 3.7-3.2 3.6c-1 1.2-2.1 2.4-3.1 3.8a11.6 11.6 0 0 0-1.4 2.7l-.9 2.6a10.2 10.2 0 0 1-1.4 2.2 5.2 5.2 0 0 1-2.5 1.6l-1.4.6-2 .6-2 .7-1.4.4a3 3 0 0 1 .2 2 2 2 0 0 1-.9.9l-1.2.6a1.5 1.5 0 0 0-.9 1l-2.3 6.8a2.7 2.7 0 0 1-1.1 1.5 5.6 5.6 0 0 1-1.7.9 14.9 14.9 0 0 1-2.1.2l-1.8-.2h-.9c-.5 0-.9.2-1.1.1s-.4-.4-.4-.9a.8.8 0 0 1 .1-.4l.2-.2c.1-.1.2-.2.2-.3a.6.6 0 0 0 .1-.4v-.2a15.4 15.4 0 0 0-3.4 1.7 37.9 37.9 0 0 0-3.4 2l-3.4 2.2a37.9 37.9 0 0 1-3.4 2l-.8.5-1.2.5-1 .8a1.6 1.6 0 0 0-.5 1.1v.5l1.8 1.7 2 1.7a15.6 15.6 0 0 0 2 1.6 12 12 0 0 0 2.1 1.3l1.8.7 2 .5 1.9.7a5.6 5.6 0 0 1 1.7.9 5.7 5.7 0 0 1 1.3 1.4l1.2 1.5 1.1 1.5a6.4 6.4 0 0 0 1.5 1.3l1.7.6 2.1.6 1.8 1a2.3 2.3 0 0 1 .7 1.8v.5l-5.6 1.1-1.2.4a1.8 1.8 0 0 1-1.1.3h-.6l-1.1-.6-1.8-1-1.7-1c-.5-.4-.9-.6-1-.8l-.2-.2-.3-.5-.4-.6a.8.8 0 0 1-.2-.4l-2.3-4.6-1.2-.4-1.8-.8-2.1-.9-2.2-1-1.8-.8-1.1-.6a13.3 13.3 0 0 1-2.8-1.6 13.9 13.9 0 0 1-2.7-2.1l-2-2.7a7.5 7.5 0 0 1-1-3.2l-.6.2-.6.4-.9.6a8.3 8.3 0 0 1-1.7 1.2l-2.1 1.4-2.2 1.4-1.7 1.1-1 .5-6 3.6a20.3 20.3 0 0 0-4.6 3.4 15.9 15.9 0 0 0-3.6 4.5c-.9 1.7-.8 3.9-2.4 6.6v.7c-.1.1 0 .3 0 .5v.4a10.6 10.6 0 0 0 1.1 4.5 8.5 8.5 0 0 0 4.8 4l2.6 1a4.7 4.7 0 0 1 2 1 5.3 5.3 0 0 1 .8 2h-13.4l-.2-.4c-.1-.2-.2-.1-.4-.2h-.5l-.6-.4a3.2 3.2 0 0 1-1.3-1.5 7.8 7.8 0 0 1-.4-2.2 8.6 8.6 0 0 1 .2-2.3c0-.8.3-1.5.3-2.1v-1.5a7.7 7.7 0 0 1 .2-1.8l.6-2.7c.3-1 .5-2 .8-3.1s.5-2.2.8-3.2.5-1.9.7-2.7.3-1.4.4-1.8a11.8 11.8 0 0 1 .7-2 7 7 0 0 1 1-1.9 16.1 16.1 0 0 0 4.5-2.6 25.7 25.7 0 0 0 3.3-3.3l2.9-3.5a17 17 0 0 1 3.4-3.1l1.5-.7 2.1-.8 2.3-1a15.1 15.1 0 0 0 2.2-1.4l1.6-1.3a2.5 2.5 0 0 0 .6-1.6v-1.3a2.4 2.4 0 0 0-.7-1.3l-.7-.2-1.2-.6-1.2-.5-.8-.4-2.1-1.2-2.6-1.9c-.9-.7-1.8-1-2.6-1.6a3 3 0 0 0-1.7-.5h-8c-6 0-11.9-.1-17.8.1s-11.7.2-17.8.2c-4.4 0-8.7-.2-12.9-.4a101.2 101.2 0 0 1-24.6-4.3 76.1 76.1 0 0 1-11.9-5.1l-1.4-.7a9.1 9.1 0 0 1-1.6-1.1 4 4 0 0 1-1.3-1.3 2.2 2.2 0 0 1-.6-1.5 6.9 6.9 0 0 1 2.2.4 11.7 11.7 0 0 1 2.4.9l2.2 1 1.5.6c1.5.6 3 1.2 4.7 1.7l5.1 1.4a31.8 31.8 0 0 0 5.2 1 27.4 27.4 0 0 0 4.8.4h26.8l2.5-.4 3.4-.5 3.7-.6 3.4-.6 2.7-.6 7-1.4c2.4-.4 4.9-1 7.4-1.6s4.9-1.3 7.3-2.1a58.6 58.6 0 0 0 6.7-2.8l3.8-1.8a26.6 26.6 0 0 1 3.9-1.6l3.9-1.4a29.8 29.8 0 0 1 4.3-.9h2.8l1.8-.2 1-.2 1.9-.3 3.4-.7 4.1-.9 4-1c1.3-.2 2.4-.9 3.4-1.1s1.6-.7 1.9-.7h6.6c2.7 0 5.4.5 8 .7s5.2.5 7.9.5a10.1 10.1 0 0 0 5.1-1.2 18.7 18.7 0 0 0 4.5-3.6 33.3 33.3 0 0 0 3.9-5 53 53 0 0 0 3.3-5.7c1-1.9 1.8-3.8 2.6-5.6l1.8-4.8c.4-1.2.8-2.4 1.1-3.5s.7-2.2 1-3.2a12.3 12.3 0 0 1 1.2-2.6 7 7 0 0 1 1.8-2 7.6 7.6 0 0 1 2.6-1.6 14.1 14.1 0 0 1 3.9-.8h3c.8 1.7 1.8.9 3 1.3a30 30 0 0 1 3.6 1.5 14.1 14.1 0 0 1 3 1.9 2.6 2.6 0 0 1 1.3 2.2 2 2 0 0 1-.5 1.4z"/></symbol></svg>