<svg xmlns="http://www.w3.org/2000/svg" width="256" height="256" viewBox="0 0 256 256"><path d="M128 .5C57.3.5 0 57.6 0 128s57.3 127.5 128 127.5S256 198.4 256 128 198.7.5 128 .5zm110.7 116.3h-7.4c-3.1 0-6.2-.2-9.2-.4l-9.2-1-9.1-1c-3.1-.3-6.2-.4-9.3-.4a130 130 0 0 0-16.4 1 65.7 65.7 0 0 0-15.9 3.7l-30.8 11a2.7 2.7 0 0 0-1.2 1.6 17.3 17.3 0 0 0-.8 2.7l-.6 2.9a9.8 9.8 0 0 1-.6 2 3.2 3.2 0 0 0 1.3 1.3l2.5 1.1 2.9 1.2a15.1 15.1 0 0 1 2.8 1.5 9.5 9.5 0 0 1 2.1 1.9 4.1 4.1 0 0 1 .8 2.4 1.7 1.7 0 0 1-.5 1.2 3.8 3.8 0 0 1-1.2.9l-1.6.7-1.6.8a6.9 6.9 0 0 0-1.3 1.1 2.4 2.4 0 0 0-.4 1.5 3.3 3.3 0 0 0 .8 2.5 6 6 0 0 0 1.9 1.6l2.4 1.4a6.8 6.8 0 0 1 2.1 1.7 13.6 13.6 0 0 1 2.1 3.4 33 33 0 0 1 1.3 3.7 26.6 26.6 0 0 1 .7 3.9c.2 1.3.1 2.6.3 4l1.3 1.3v7.2h1.9l1 .3.6.2v.8a3.8 3.8 0 0 1-.1 1 5.3 5.3 0 0 1-.3 1.2 2.6 2.6 0 0 1-.7 1 .8.8 0 0 1-.8.3h-5.3c-.2 0-.5-.5-1-.8l-1.5-.9-1.5-.8c-.6-.3-.9-.8-1.2-.8h-6.2a4.4 4.4 0 0 1 2.3-4.6l2.1-.6 2.2-.4a3.8 3.8 0 0 0 1.6-.6 1.4 1.4 0 0 0 .7-1.3.8.8 0 0 0-.1-.4v-.3l-.8-1.7-1.3-2.5c-.5-.8-1-1.7-1.6-2.5a9.5 9.5 0 0 0-1.5-1.8l-1.3-.8-1.9-.9-1.8-1.1a1.9 1.9 0 0 1-.9-1.1 16.3 16.3 0 0 1-1-2.9 17.3 17.3 0 0 0-1.1-3.2 6.9 6.9 0 0 0-1.7-2.6 4 4 0 0 0-2.9-1.1 25.5 25.5 0 0 0-6.1.8 23.5 23.5 0 0 0-5.7 2.3 25.2 25.2 0 0 0-5.1 3.4 24.4 24.4 0 0 0-3.9 4.6l-.4.2h-.1l-.2-.2-.2-.3c0-.2-.1-.4-.1-.6a6.4 6.4 0 0 0-.2-.7v-.3h-.3a1.6 1.6 0 0 0-1.1.5l-.9 1.2-.8 1.3a3 3 0 0 1-.9 1 4.6 4.6 0 0 1-.6-1.6 8.6 8.6 0 0 1-.1-1.7 9.2 9.2 0 0 1 .4-2.9l.9-2.8a11.4 11.4 0 0 0 .9-2.6 14.1 14.1 0 0 0 .4-2.7h-5c0-1.7.2-1.8.7-2.4a6.1 6.1 0 0 1 1.6-1.6l2.1-.9 2.2-.3a15.1 15.1 0 0 1 3 .2l3 .5 2.9.4a13.7 13.7 0 0 0 2.9.2h2.3a2.4 2.4 0 0 0-1.7-1.4l-2.5-.5-2.7-.2c-.9 0-1.6.2-2.2-.2l-4-2.1h-.2a17.4 17.4 0 0 0-3.2-.1 11.3 11.3 0 0 1-3.2.2 7.3 7.3 0 0 1-3-.7l-2.7-1.4-2.6-1.4a6.6 6.6 0 0 0-2.9-.6v6.1l1.6-.2 1-.3.9-.5.9-.7h.6v2.7l2-.7c0 .1.2.3.2.5s.2.4.2.5a5.6 5.6 0 0 1-1.4 3.9 19 19 0 0 1-3.3 2.9 26.4 26.4 0 0 0-4.6-1.3l-4.8-.6v-7.9l-1.8.6-2 1a10.5 10.5 0 0 0-1.9 1.2c-.5.4-1 .8-1 1.2v6.9a9.6 9.6 0 0 0 3-.3l1.9-.6 1.2-.6a2.4 2.4 0 0 1 1.2-.3h.4l.3.7c.1.4.3.8.4 1.3a6.5 6.5 0 0 1 .4 1.3 5.1 5.1 0 0 1 .2.9 4.3 4.3 0 0 1-.4 1.9 5.4 5.4 0 0 1-1.1 1.8 5 5 0 0 1-1.5 1.4 3.4 3.4 0 0 1-1.9.5h-1l-3-.5a22 22 0 0 1-3.7-.7 14.2 14.2 0 0 1-3.3-1.2 2.6 2.6 0 0 1-1.4-2.1V150c0-.2.4-.4.9-.9l1.9-1.6 2.4-2.2 2.4-2.5a21.1 21.1 0 0 0 1.8-2.7 5.1 5.1 0 0 0 .7-2.6 3.7 3.7 0 0 0-1.2-2.7 12.1 12.1 0 0 0-2.8-2.1l-3.3-1.4-2.5-.9-1.3-9.1-.6-2.7a11.8 11.8 0 0 0-1.2-2.8 5.8 5.8 0 0 0-1.7-2.1 4.4 4.4 0 0 0-2.7-.9 10.7 10.7 0 0 0-3.7.5 13 13 0 0 0-3.2 1.5l-1.7 1-2.5 1.5-3 1.7c-1 .7-2 1.2-3 1.8a29.4 29.4 0 0 0-2.6 1.7c-.7.4-1.3 1.1-1.6 1.1h-1l-1.8-.3-2.1-.3a4.1 4.1 0 0 1-1.3-.8c-.5-.3-.4-.8-.4-1.4v-1.9c0-.6-.2-.9.1-.9h1.5v-.4c.1-.3.1-.6.2-.9s.1-.5.2-.8v-.5a1.5 1.5 0 0 0-.8-.8l-.9-.5a2.3 2.3 0 0 1-.7-.7 2.3 2.3 0 0 1-.3-1.3 2.6 2.6 0 0 1 .3-1.1 4.5 4.5 0 0 1 .6-1.2c.3-.4.3-.7.7-.9l.8-.3v.8a3.5 3.5 0 0 0 .6 1.4 1.1 1.1 0 0 0 1.2.8 2.1 2.1 0 0 0 1.1-.5 4.8 4.8 0 0 0 .9-1.1 12.2 12.2 0 0 0 .7-1.7c.1-.4.2.3.2-1.4H20.8l-.8-.4a10.5 10.5 0 0 1-1.1-.7 3.6 3.6 0 0 1-.9-.8 1.3 1.3 0 0 1-.4-1 4 4 0 0 1 1.1-3.2 6.8 6.8 0 0 1 2.6-1.8 11.9 11.9 0 0 1 3.2-1l2.9-.9 2.2-.9 3.4-1.6a25.3 25.3 0 0 0 3.3-1.6 11 11 0 0 1 2.2-1h13.7a7.1 7.1 0 0 1 3.9 1 12.6 12.6 0 0 1 3.2 2.5 20.4 20.4 0 0 1 2.5 3.3l2.3 3.3a20.2 20.2 0 0 0 2.3 2.6 4.2 4.2 0 0 0 2.5 1c.4 0 .7-.1.8-.4s.4-.4.9-.4a4 4 0 0 1 1.5.3l1.5.7 1.5.7a4.5 4.5 0 0 0 1.6.3 29.5 29.5 0 0 0 4.2-.2l4.1-.4 4.1-.5 4.2-.2a57.4 57.4 0 0 1 7.3.4 33.1 33.1 0 0 1 7.3 1.6c1.7.5 3.3 1.2 5.1 1.9l5.1 2.2a47.2 47.2 0 0 0 5.3 1.8 20 20 0 0 0 5.4.7h2.6l13-2.7c4.3-.9 8.6-1.7 12.9-2.3s8.7-1.2 13-1.6 8.8-.6 13.2-.6h3.4l5.5.2a33.5 33.5 0 0 1 5.1.9l36.7 7.3h11.7c-.8 0-1.8 1-3.1 1.3a14 14 0 0 1-4.1.1z"/></svg>